{"title":"True.Story.2015.1080p.WEB-DL.DD5.1.H.264.RARBG","uid":12109126,"size":4025871909,"categoryP":"video","categoryS":"hd___movies","magnet":"?xt=urn:btih:745a7ee25b5cc7465a3964b4b410973084c2c86b&amp;dn=True.Story.2015.1080p.WEB-DL.DD5.1.H.264.RARBG&amp;tr=udp%3A%2F%2Ftracker.openbittorrent.com%3A80&amp;tr=udp%3A%2F%2Fopen.demonii.com%3A1337&amp;tr=udp%3A%2F%2Ftracker.coppersurfer.tk%3A6969&amp;tr=udp%3A%2F%2Fexodus.desync.com%3A6969","seeders":3,"leechers":0,"uploader":"frostyon420","files":3,"time":1436519003,"description":"Itunes\nMKV\nAVC\nAC3 5.1\n\n[mediainfo]\nVideo\nID                          : 1\nFormat                      : AVC\nFormat/Info                 : Advanced Video Codec\nFormat profile              : &lt;a class=&quot;__cf_email__&quot; href=&quot;/cdn-cgi/l/email-protection&quot; data-cfemail=&quot;9ed6f7f9f6ded2aab0ae&quot;&gt;[email&amp;#160;protected]&lt;/a&gt;&lt;script data-cfhash='f9e31' type=&quot;text/javascript&quot;&gt;\n/* &lt;![CDATA[ */!function(){try{var t=&quot;currentScript&quot;in document?document.currentScript:function(){for(var t=document.getElementsByTagName(&quot;script&quot;),e=t.length;e--;)if(t[e].getAttribute(&quot;data-cfhash&quot;))return t[e]}();if(t&amp;&amp;t.previousSibling){var e,r,n,i,c=t.previousSibling,a=c.getAttribute(&quot;data-cfemail&quot;);if(a){for(e=&quot;&quot;,r=parseInt(a.substr(0,2),16),n=2;a.length-n;n+=2)i=parseInt(a.substr(n,2),16)^r,e+=String.fromCharCode(i);e=document.createTextNode(e),c.parentNode.replaceChild(e,c)}t.parentNode.removeChild(t);}}catch(u){}}()/* ]]&gt; */&lt;/script&gt;\nFormat settings, CABAC      : Yes\nFormat settings, ReFrames   : 4 frames\nCodec ID                    : V_MPEG4/ISO/AVC\nDuration                    : 1h 39mn\nBit rate                    : 4 881 Kbps\nWidth                       : 1 912 pixels\nHeight                      : 1 032 pixels\nDisplay aspect ratio        : 1.85:1\nFrame rate mode             : Constant\nFrame rate                  : 23.976 fps\nColor space                 : YUV\nChroma subsampling          : 4:2:0\nBit depth                   : 8 bits\nScan type                   : Progressive\nBits/(Pixel*Frame)          : 0.103\nStream size                 : 3.41 GiB (91%)\nTitle                       : True.Story.2015.1080p.WEB-DL.DD5.1.H.264.RARBG\nLanguage                    : English\nDefault                     : Yes\nForced                      : No\nColor primaries             : BT.709\nTransfer characteristics    : BT.709\nMatrix coefficients         : BT.709\nColor range                 : Limited\n\nAudio\nID                          : 2\nFormat                      : AC-3\nFormat/Info                 : Audio Coding 3\nMode extension              : CM (complete main)\nFormat settings, Endianness : Big\nCodec ID                    : A_AC3\nDuration                    : 1h 39mn\nBit rate mode               : Constant\nBit rate                    : 384 Kbps\nChannel(s)                  : 6 channels\nChannel positions           : Front: L C R, Side: L R, LFE\nSampling rate               : 48.0 KHz\nBit depth                   : 16 bits\nCompression mode            : Lossy\nStream size                 : 274 MiB (7%)\nTitle                       : True.Story.2015.1080p.WEB-DL.DD5.1.H.264.RARBG\nLanguage                    : English\nDefault                     : Yes\nForced                      : No\n\nText\nID                          : 3\nFormat                      : UTF-8\nCodec ID                    : S_TEXT/UTF8\nCodec ID/Info               : UTF-8 Plain Text\nTitle                       : English\nLanguage                    : English\nDefault                     : No\nForced                      : No\n\nMenu\n00:00:00.000                : en:Chapter 01\n00:04:18.000                : en:Chapter 02\n00:06:38.000                : en:Chapter 03\n00:09:03.000                : en:Chapter 04\n00:13:13.000                : en:Chapter 05\n00:16:35.000                : en:Chapter 06\n00:17:55.000                : en:Chapter 07\n00:19:09.000                : en:Chapter 08\n00:25:28.000                : en:Chapter 09\n00:29:07.000                : en:Chapter 10\n00:32:39.000                : en:Chapter 11\n00:36:49.000                : en:Chapter 12\n00:38:04.000                : en:Chapter 13\n00:39:49.000                : en:Chapter 14\n00:44:23.000                : en:Chapter 15\n00:46:40.000                : en:Chapter 16\n00:49:19.000                : en:Chapter 17\n00:50:52.000                : en:Chapter 18\n00:53:08.000                : en:Chapter 19\n00:58:01.000                : en:Chapter 20\n01:00:52.000                : en:Chapter 21\n01:05:05.000                : en:Chapter 22\n01:06:58.000                : en:Chapter 23\n01:16:51.000                : en:Chapter 24\n01:21:59.000                : en:Chapter 25\n01:25:30.000                : en:Chapter 26\n01:30:40.000                : en:Chapter 27\n01:33:47.000                : en:Chapter 28\n\nPhr0stY-Duz-It\n[/mediainfo]","torrent":{"xt":"urn:btih:745a7ee25b5cc7465a3964b4b410973084c2c86b","amp;dn":"True.Story.2015.1080p.WEB-DL.DD5.1.H.264.RARBG","amp;tr":["udp%3A%2F%2Ftracker.openbittorrent.com%3A80","udp%3A%2F%2Fopen.demonii.com%3A1337","udp%3A%2F%2Ftracker.coppersurfer.tk%3A6969","udp%3A%2F%2Fexodus.desync.com%3A6969"],"infoHash":"745a7ee25b5cc7465a3964b4b410973084c2c86b","infoHashBuffer":{"type":"Buffer","data":[116,90,126,226,91,92,199,70,90,57,100,180,180,16,151,48,132,194,200,107]},"announce":[],"urlList":[]}}